<svg xmlns="http://www.w3.org/2000/svg" width="125.011" height="104.406" viewBox="0 0 125.011 104.406">
  <g id="CPB_Logo_Primary_Midnight_RGB" transform="translate(-31.91 -38)">
    <path id="Path_1" data-name="Path 1" d="M144.026,65.12v3.293H132.42V41.23h11.333v3.293h-7.312v8.232h6.7v3.291h-6.7v9.07Z" transform="translate(-80.252 -2.579)" fill="#253746"/>
    <path id="Path_2" data-name="Path 2" d="M218,41.23h4.434l5.589,15.85a34.811,34.811,0,0,1,1.111,4.481h.115c-.192-2.183-.306-4.289-.306-6.587V41.23h3.676V68.414h-4.086l-5.819-16.655a31.94,31.94,0,0,1-1.225-4.481h-.115a48.345,48.345,0,0,1,.306,5.285v15.85H218Z" transform="translate(-148.582 -2.579)" fill="#253746"/>
    <path id="Path_3" data-name="Path 3" d="M325.918,44.753h-5.285V68.414h-3.942V44.753H311.37V41.23h14.548Z" transform="translate(-223.133 -2.579)" fill="#253746"/>
    <path id="Path_4" data-name="Path 4" d="M410.685,57h-2.336v11.41H404.33V41.23h6.393c4.978,0,7.006,2.528,7.044,6.968V49.73c0,3.37-1.225,5.513-3.33,6.432l4.019,12.253h-4.249Zm-.192-2.794c2.26,0,3.14-1.411,3.14-4.366v-1.57c0-2.908-.919-4.1-3.179-4.1h-2.106V54.21Z" transform="translate(-297.356 -2.579)" fill="#253746"/>
    <path id="Path_5" data-name="Path 5" d="M504.849,61.178h-5.442l-1.262,7.236H494.09l5.442-27.184H504.7l5.47,27.184h-4.057Zm-.536-3.1L502.7,48.964c-.23-1.34-.383-2.6-.536-4.019h-.115c-.153,1.411-.306,2.679-.5,4.019l-1.612,9.112Z" transform="translate(-369.025 -2.579)" fill="#253746"/>
    <path id="Path_6" data-name="Path 6" d="M597.76,41.23h4.031V64.776h6.93V68.4H597.76Z" transform="translate(-451.799 -2.579)" fill="#253746"/>
    <path id="Path_7" data-name="Path 7" d="M49.489,237.841v2.336c0,4.593-2.487,7.2-6.853,7.2H40.1v10.989H36.09V231.18h6.432C47.117,231.18,49.451,233.439,49.489,237.841Zm-4.134.268c0-2.757-1-3.942-3.179-3.942H40.1v10.221h2.112c2.106,0,3.14-1.3,3.14-4.249Z" transform="translate(-3.337 -154.243)" fill="#253746"/>
    <path id="Path_8" data-name="Path 8" d="M122.819,251.128h-5.442l-1.264,7.236H112.06L117.5,231.18h5.17l5.474,27.184h-4.065Zm-.536-3.1-1.612-9.112c-.23-1.34-.383-2.6-.536-4.019h-.115c-.153,1.411-.306,2.679-.5,4.019l-1.612,9.112Z" transform="translate(-63.995 -154.243)" fill="#253746"/>
    <path id="Path_9" data-name="Path 9" d="M310.52,258.364V231.18h4.031v27.184Z" transform="translate(-222.454 -154.243)" fill="#253746"/>
    <path id="Path_10" data-name="Path 10" d="M367.451,234.471v8.264h6.7v3.291h-6.7v12.329H363.43V231.18h11.333v3.291Z" transform="translate(-264.7 -154.243)" fill="#253746"/>
    <path id="Path_11" data-name="Path 11" d="M445.23,258.364V231.18h4.021v27.184Z" transform="translate(-330.013 -154.243)" fill="#253746"/>
    <path id="Path_12" data-name="Path 12" d="M49.645,440.121v.843c0,4.785-2.259,7.351-7.008,7.351H36.09V421.13h6.393c4.749,0,6.817,2.451,6.817,6.547v.919c0,2.949-1.411,4.787-3.447,5.361C48,434.608,49.645,436.253,49.645,440.121ZM40.1,424.079v8.806h2.036c2.217,0,3.023-1.3,3.023-4.251v-.879c0-2.566-.881-3.674-3.064-3.674Zm5.406,15.971c0-3.179-.957-4.327-3.225-4.327H40.1v9.568h2.419c2.217,0,2.987-1.492,2.987-4.287Z" transform="translate(-3.337 -305.908)" fill="#253746"/>
    <path id="Path_13" data-name="Path 13" d="M131,441.078h-5.442l-1.26,7.236H120.24l5.442-27.184h5.17l5.464,27.184h-4.055Zm-.528-3.1-1.612-9.112c-.23-1.34-.383-2.6-.536-4.021h-.115c-.153,1.411-.306,2.681-.5,4.021l-1.612,9.112Z" transform="translate(-70.527 -305.908)" fill="#253746"/>
    <path id="Path_14" data-name="Path 14" d="M224.71,421.13h4.434l5.591,15.85a34.805,34.805,0,0,1,1.119,4.48h.115c-.191-2.183-.306-4.289-.306-6.585V421.13h3.674v27.184h-4.088l-5.821-16.655a31.918,31.918,0,0,1-1.234-4.481h-.115a48.342,48.342,0,0,1,.316,5.285v15.85H224.71Z" transform="translate(-153.94 -305.908)" fill="#253746"/>
    <path id="Path_15" data-name="Path 15" d="M336.705,435.183l-2.372,4.938v8.193H330.32V421.13h4.021v13.591l6.248-13.591h4.249l-5.24,10.453,5.442,16.729h-4.382Z" transform="translate(-238.264 -305.908)" fill="#253746"/>
    <path id="Path_16" data-name="Path 16" d="M31.91,57.984V46.078C31.91,40.8,34.548,38,39.261,38c4.479,0,6.978,2.259,6.978,7.236V47.61l-4.184.437V45.389c0-2.719-.917-4.059-2.87-4.059-2.03,0-3.1,1.225-3.1,4.329V58.408c0,3.1,1.111,4.708,3.14,4.708,1.876,0,2.872-1.338,2.872-3.83V55.914l4.144.462v2.872c0,4.708-2.642,7.236-7.044,7.236C34.514,66.484,31.91,63.65,31.91,57.984Z" transform="translate(0 0)" fill="#253746"/>
    <path id="Path_17" data-name="Path 17" d="M210.61,247.91V236c0-5.283,2.642-8.078,7.351-8.078,4.479,0,6.968,2.259,6.968,7.236v2.374l-4.174.437v-2.652c0-2.719-.917-4.059-2.87-4.059-2.03,0-3.1,1.225-3.1,4.327v12.748c0,3.1,1.111,4.708,3.14,4.708,1.876,0,2.87-1.338,2.87-3.83v-3.37l4.136.462v2.872c0,4.708-2.642,7.236-7.044,7.236C213.212,256.41,210.61,253.576,210.61,247.91Z" transform="translate(-142.682 -151.64)" fill="#253746"/>
    <path id="Path_18" data-name="Path 18" d="M494.24,247.91V236c0-5.283,2.64-8.078,7.351-8.078,4.479,0,6.968,2.259,6.968,7.236v2.374l-4.174.437v-2.652c0-2.719-.917-4.059-2.87-4.059-2.03,0-3.1,1.225-3.1,4.327v12.748c0,3.1,1.111,4.708,3.14,4.708,1.876,0,2.87-1.338,2.87-3.83v-3.37l4.136.462v2.872c0,4.708-2.642,7.236-7.044,7.236C496.842,256.41,494.24,253.576,494.24,247.91Z" transform="translate(-369.144 -151.64)" fill="#253746"/>
  </g>
</svg>
